<svg xmlns="http://www.w3.org/2000/svg" xmlns:xlink="http://www.w3.org/1999/xlink" width="1080" zoomAndPan="magnify" viewBox="0 0 810 1012.49997" height="1350" preserveAspectRatio="xMidYMid meet" version="1.0"><defs><g/><clipPath id="a77c79471b"><path d="M 96.976562 112.417969 L 205.886719 112.417969 L 205.886719 207.253906 L 96.976562 207.253906 Z M 96.976562 112.417969 " clip-rule="nonzero"/></clipPath><clipPath id="531bdcb7c2"><path d="M 151.367188 112.417969 C 121.328125 112.417969 96.976562 133.648438 96.976562 159.835938 C 96.976562 186.023438 121.328125 207.253906 151.367188 207.253906 C 181.410156 207.253906 205.761719 186.023438 205.761719 159.835938 C 205.761719 133.648438 181.410156 112.417969 151.367188 112.417969 Z M 151.367188 112.417969 " clip-rule="nonzero"/></clipPath><clipPath id="7c1fe2340b"><path d="M 0.976562 0.417969 L 109.878906 0.417969 L 109.878906 95.253906 L 0.976562 95.253906 Z M 0.976562 0.417969 " clip-rule="nonzero"/></clipPath><clipPath id="d074e4b87e"><path d="M 55.367188 0.417969 C 25.328125 0.417969 0.976562 21.648438 0.976562 47.835938 C 0.976562 74.023438 25.328125 95.253906 55.367188 95.253906 C 85.410156 95.253906 109.761719 74.023438 109.761719 47.835938 C 109.761719 21.648438 85.410156 0.417969 55.367188 0.417969 Z M 55.367188 0.417969 " clip-rule="nonzero"/></clipPath><clipPath id="70eb79c994"><rect x="0" width="110" y="0" height="96"/></clipPath><clipPath id="53f8bfbfd0"><path d="M 96.976562 112.421875 L 205.78125 112.421875 L 205.78125 207.253906 L 96.976562 207.253906 Z M 96.976562 112.421875 " clip-rule="nonzero"/></clipPath><clipPath id="24f530c2d2"><path d="M 151.367188 112.421875 C 121.328125 112.421875 96.976562 133.648438 96.976562 159.835938 C 96.976562 186.023438 121.328125 207.253906 151.367188 207.253906 C 181.410156 207.253906 205.761719 186.023438 205.761719 159.835938 C 205.761719 133.648438 181.410156 112.421875 151.367188 112.421875 Z M 151.367188 112.421875 " clip-rule="nonzero"/></clipPath><clipPath id="16bfd75e2f"><path d="M 131 121.65625 L 158 121.65625 L 158 153 L 131 153 Z M 131 121.65625 " clip-rule="nonzero"/></clipPath><clipPath id="987bbb5f8b"><path d="M 145 121.65625 L 172 121.65625 L 172 153 L 145 153 Z M 145 121.65625 " clip-rule="nonzero"/></clipPath><clipPath id="c972268362"><path d="M 112.496094 149 L 151 149 L 151 171 L 112.496094 171 Z M 112.496094 149 " clip-rule="nonzero"/></clipPath><clipPath id="b5dc2bd9ec"><path d="M 152 149 L 190.277344 149 L 190.277344 171 L 152 171 Z M 152 149 " clip-rule="nonzero"/></clipPath><clipPath id="6ab363133a"><path d="M 0.542969 0.429688 L 430.890625 0.429688 L 430.890625 203 L 0.542969 203 Z M 0.542969 0.429688 " clip-rule="nonzero"/></clipPath><clipPath id="d3fc60fe0e"><path d="M 430 97 L 430.890625 97 L 430.890625 98 L 430 98 Z M 430 97 " clip-rule="nonzero"/></clipPath><clipPath id="a2316de087"><rect x="0" width="431" y="0" height="203"/></clipPath><clipPath id="5f5d7dc15a"><rect x="0" width="431" y="0" height="221"/></clipPath></defs><g transform="matrix(1, 0, 0, 1, 199, 428)"><g clip-path="url(#5f5d7dc15a)"><g clip-path="url(#a77c79471b)"><g clip-path="url(#531bdcb7c2)"><g transform="matrix(1, 0, 0, 1, 96, 112)"><g clip-path="url(#70eb79c994)"><g clip-path="url(#7c1fe2340b)"><g clip-path="url(#d074e4b87e)"><path fill="#e8e7e7" d="M 0.976562 0.417969 L 109.886719 0.417969 L 109.886719 95.253906 L 0.976562 95.253906 Z M 0.976562 0.417969 " fill-opacity="1" fill-rule="nonzero"/></g></g></g></g></g></g><g clip-path="url(#53f8bfbfd0)"><g clip-path="url(#24f530c2d2)"><path stroke-linecap="butt" transform="matrix(0.147036, 0, 0, 0.147036, 96.974915, 112.419924)" fill="none" stroke-linejoin="miter" d="M 369.923999 0.0132674 C 165.627144 0.0132674 0.011203 144.37596 0.011203 322.478185 C 0.011203 500.58041 165.627144 644.969669 369.923999 644.969669 C 574.24742 644.969669 739.863361 500.58041 739.863361 322.478185 C 739.863361 144.37596 574.24742 0.0132674 369.923999 0.0132674 Z M 369.923999 0.0132674 " stroke="#c4c4c4" stroke-width="40.786095" stroke-opacity="1" stroke-miterlimit="4"/></g></g><path fill="#000000" d="M 158.007812 164.640625 L 135.46875 169.019531 C 133.582031 175.402344 132.636719 179.589844 132.628906 181.585938 C 132.628906 183.667969 132.777344 185.324219 133.082031 186.554688 C 133.238281 187.273438 133.441406 187.996094 133.691406 188.722656 L 134.097656 189.808594 C 134.386719 190.535156 134.726562 191.261719 135.105469 191.988281 C 139.214844 198.714844 145.023438 201.710938 152.535156 200.984375 L 154.542969 200.300781 L 156.402344 199.273438 L 158.105469 197.910156 L 159.65625 196.203125 L 161.054688 194.152344 C 162.820312 191.195312 164.175781 187.328125 165.128906 182.550781 C 165.429688 180.164062 165.546875 178.011719 165.476562 176.097656 L 165.238281 173.402344 L 164.722656 171.058594 L 163.933594 169.066406 L 162.867188 167.429688 L 161.523438 166.144531 L 159.902344 165.214844 L 158.007812 164.640625 " fill-opacity="0.996" fill-rule="nonzero"/><path fill="#000000" d="M 144.746094 164.640625 L 167.285156 169.019531 C 169.167969 175.402344 170.117188 179.589844 170.125 181.585938 C 170.125 183.667969 169.972656 185.324219 169.671875 186.554688 C 169.511719 187.273438 169.308594 188 169.0625 188.722656 L 168.65625 189.808594 C 168.363281 190.535156 168.027344 191.261719 167.644531 191.988281 C 163.539062 198.714844 157.730469 201.710938 150.214844 200.984375 L 148.207031 200.300781 L 146.351562 199.273438 L 144.648438 197.910156 L 143.097656 196.203125 L 141.695312 194.152344 C 139.933594 191.195312 138.574219 187.328125 137.621094 182.550781 C 137.320312 180.164062 137.207031 178.011719 137.273438 176.097656 L 137.511719 173.402344 L 138.027344 171.058594 L 138.820312 169.066406 L 139.886719 167.429688 L 141.230469 166.144531 L 142.847656 165.214844 L 144.746094 164.640625 " fill-opacity="0.996" fill-rule="nonzero"/><path fill="#fe5721" d="M 155.253906 161.992188 L 141.863281 168.136719 C 141.21875 169.011719 140.640625 170.160156 140.125 171.578125 C 139.867188 172.285156 139.625 173.058594 139.398438 173.902344 L 139.070312 175.21875 C 138.863281 176.128906 138.667969 177.105469 138.488281 178.152344 C 138.265625 180.0625 138.203125 181.792969 138.296875 183.339844 C 138.34375 184.113281 138.433594 184.84375 138.558594 185.527344 C 138.945312 187.15625 139.226562 188.082031 139.402344 188.296875 C 140.925781 191.617188 142.964844 193.828125 145.515625 194.933594 C 146.363281 195.304688 147.269531 195.550781 148.234375 195.671875 L 149.71875 195.765625 C 150.558594 195.792969 151.71875 195.652344 153.203125 195.339844 C 156.511719 193.675781 158.4375 189.605469 158.988281 183.128906 C 159.210938 180.792969 159.25 178.625 159.097656 176.621094 C 158.8125 173.625 158.488281 171.183594 158.132812 169.304688 C 157.355469 166.003906 156.804688 164.035156 156.484375 163.398438 C 156.144531 162.664062 155.734375 162.195312 155.253906 161.992188 " fill-opacity="0.996" fill-rule="nonzero"/><path fill="#fe5721" d="M 147.5 161.992188 L 160.890625 168.136719 C 161.53125 169.011719 162.113281 170.160156 162.628906 171.578125 C 162.886719 172.285156 163.128906 173.058594 163.351562 173.902344 L 163.679688 175.21875 C 163.890625 176.128906 164.085938 177.105469 164.261719 178.152344 C 164.484375 180.0625 164.550781 181.792969 164.453125 183.339844 C 164.40625 184.113281 164.320312 184.84375 164.191406 185.527344 C 163.804688 187.15625 163.523438 188.082031 163.351562 188.296875 C 161.824219 191.617188 159.789062 193.828125 157.238281 194.933594 C 156.386719 195.304688 155.480469 195.550781 154.519531 195.671875 L 153.03125 195.765625 C 152.191406 195.792969 151.03125 195.652344 149.550781 195.339844 C 146.242188 193.675781 144.3125 189.605469 143.761719 183.128906 C 143.539062 180.792969 143.503906 178.625 143.65625 176.621094 C 143.941406 173.625 144.261719 171.183594 144.621094 169.304688 C 145.398438 166.003906 145.945312 164.035156 146.269531 163.398438 C 146.605469 162.664062 147.015625 162.195312 147.5 161.992188 " fill-opacity="0.996" fill-rule="nonzero"/><g clip-path="url(#16bfd75e2f)"><path fill="#000000" d="M 150.460938 121.667969 L 148.96875 121.707031 C 143.613281 122.132812 139.378906 123.414062 136.265625 125.542969 C 132.71875 128.039062 131.054688 131.058594 131.273438 134.601562 C 131.324219 135.1875 131.671875 136.085938 132.324219 137.296875 C 132.734375 137.976562 133.253906 138.628906 133.882812 139.25 C 141.03125 144.980469 145.902344 149.273438 148.492188 152.136719 C 149.019531 152.589844 149.511719 152.792969 149.96875 152.75 C 151.949219 153.046875 154.433594 149.542969 157.425781 142.242188 L 154.121094 121.878906 C 152.613281 121.726562 151.394531 121.65625 150.460938 121.667969 " fill-opacity="0.996" fill-rule="nonzero"/></g><g clip-path="url(#987bbb5f8b)"><path fill="#000000" d="M 152.289062 121.667969 L 153.78125 121.707031 C 159.136719 122.132812 163.371094 123.414062 166.484375 125.542969 C 170.035156 128.039062 171.699219 131.058594 171.480469 134.605469 C 171.429688 135.1875 171.078125 136.085938 170.429688 137.296875 C 170.015625 137.980469 169.496094 138.628906 168.871094 139.25 C 161.722656 144.980469 156.851562 149.273438 154.261719 152.136719 C 153.730469 152.589844 153.238281 152.792969 152.785156 152.75 C 150.804688 153.046875 148.320312 149.542969 145.328125 142.242188 L 148.628906 121.878906 C 150.140625 121.726562 151.359375 121.65625 152.289062 121.667969 " fill-opacity="0.996" fill-rule="nonzero"/></g><path fill="#000000" d="M 152.476562 148.144531 L 148.800781 152.007812 C 148.816406 152.09375 148.808594 152.59375 148.777344 153.503906 C 148.492188 158.355469 148.300781 161.914062 148.203125 164.175781 C 148.152344 165.398438 148.117188 166.609375 148.097656 167.808594 C 148.066406 169.394531 148.066406 170.839844 148.101562 172.152344 C 148.117188 173.316406 148.203125 174.632812 148.351562 176.101562 C 148.511719 177.214844 148.878906 178.042969 149.453125 178.589844 C 150.683594 179.441406 151.582031 179.515625 152.144531 178.8125 C 152.457031 178.347656 152.683594 177.097656 152.816406 175.0625 C 152.863281 174.382812 152.898438 173.621094 152.921875 172.765625 L 152.988281 167.640625 C 153.046875 161.074219 153.050781 157.238281 152.992188 156.136719 C 152.863281 152.683594 152.691406 150.019531 152.476562 148.144531 " fill-opacity="0.996" fill-rule="nonzero"/><path fill="#000000" d="M 150.273438 148.144531 L 153.953125 152.007812 C 153.933594 152.09375 153.941406 152.59375 153.976562 153.503906 C 154.261719 158.355469 154.453125 161.914062 154.546875 164.175781 C 154.601562 165.398438 154.636719 166.609375 154.65625 167.808594 C 154.6875 169.394531 154.6875 170.839844 154.652344 172.152344 C 154.632812 173.316406 154.550781 174.632812 154.398438 176.101562 C 154.242188 177.214844 153.875 178.042969 153.296875 178.589844 C 152.070312 179.441406 151.171875 179.515625 150.609375 178.8125 C 150.292969 178.347656 150.070312 177.097656 149.933594 175.0625 C 149.890625 174.382812 149.855469 173.621094 149.828125 172.765625 L 149.761719 167.640625 C 149.703125 161.074219 149.703125 157.238281 149.757812 156.136719 C 149.890625 152.683594 150.0625 150.019531 150.273438 148.144531 " fill-opacity="0.996" fill-rule="nonzero"/><g clip-path="url(#c972268362)"><path fill="#000000" d="M 115.203125 149.808594 L 115.089844 149.8125 C 114.554688 149.769531 113.878906 150.023438 113.058594 150.578125 C 112.683594 150.78125 112.519531 151.199219 112.570312 151.835938 L 115.578125 156.863281 C 116.441406 158.398438 117.464844 160.738281 118.65625 163.890625 C 119.207031 165 119.765625 165.875 120.328125 166.515625 C 121.488281 167.867188 123.269531 168.933594 125.671875 169.714844 C 127.859375 170.410156 130.1875 170.722656 132.644531 170.644531 C 135.460938 170.535156 138.433594 170.011719 141.5625 169.066406 C 142.097656 168.972656 143.5 168.390625 145.769531 167.316406 C 146.65625 166.851562 147.503906 166.335938 148.320312 165.765625 C 149.136719 165.199219 149.921875 164.582031 150.667969 163.914062 L 148.929688 159.363281 C 147.226562 161.332031 145.886719 162.59375 144.917969 163.136719 C 143.707031 163.972656 142.382812 164.664062 140.949219 165.21875 C 139.871094 165.609375 138.824219 165.910156 137.8125 166.125 C 136.5625 166.359375 135.820312 166.472656 135.589844 166.464844 C 133.59375 166.625 131.804688 166.457031 130.222656 165.960938 C 129.144531 165.644531 128.152344 165.1875 127.242188 164.59375 C 126.144531 163.792969 125.511719 163.273438 125.339844 163.03125 C 124.347656 162.03125 123.546875 160.984375 122.945312 159.886719 C 122.453125 159.167969 121.171875 156.804688 119.105469 152.796875 L 118.140625 151.410156 C 117.390625 150.40625 116.410156 149.875 115.203125 149.808594 " fill-opacity="0.996" fill-rule="nonzero"/></g><g clip-path="url(#b5dc2bd9ec)"><path fill="#000000" d="M 187.550781 149.808594 L 187.664062 149.8125 C 188.195312 149.769531 188.875 150.023438 189.695312 150.578125 C 190.070312 150.78125 190.230469 151.199219 190.183594 151.835938 L 187.171875 156.863281 C 186.3125 158.398438 185.285156 160.738281 184.097656 163.890625 C 183.546875 165 182.988281 165.875 182.425781 166.515625 C 181.261719 167.867188 179.480469 168.933594 177.078125 169.714844 C 174.890625 170.410156 172.566406 170.722656 170.105469 170.644531 C 167.292969 170.535156 164.320312 170.011719 161.1875 169.066406 C 160.652344 168.972656 159.25 168.390625 156.980469 167.316406 C 156.097656 166.851562 155.246094 166.335938 154.429688 165.765625 C 153.613281 165.199219 152.832031 164.582031 152.082031 163.914062 L 153.820312 159.363281 C 155.527344 161.332031 156.867188 162.59375 157.835938 163.136719 C 159.046875 163.972656 160.367188 164.664062 161.804688 165.21875 C 162.882812 165.609375 163.929688 165.910156 164.941406 166.125 C 166.191406 166.359375 166.929688 166.472656 167.160156 166.464844 C 169.15625 166.625 170.949219 166.457031 172.527344 165.960938 C 173.605469 165.644531 174.601562 165.1875 175.507812 164.59375 C 176.609375 163.792969 177.242188 163.273438 177.410156 163.03125 C 178.40625 162.03125 179.203125 160.984375 179.808594 159.886719 C 180.296875 159.167969 181.578125 156.804688 183.648438 152.796875 L 184.609375 151.410156 C 185.363281 150.40625 186.339844 149.875 187.550781 149.808594 " fill-opacity="0.996" fill-rule="nonzero"/></g><g clip-path="url(#6ab363133a)"><g transform="matrix(1, 0, 0, 1, -0.000000000000028422, 0)"><g clip-path="url(#a2316de087)"><g fill="#d0e0e1" fill-opacity="1"><g transform="translate(0.765411, 97.149409)"><g><path d="M 39.96875 -41.890625 C 40.09375 -41.316406 40.171875 -40.738281 40.203125 -40.15625 C 40.234375 -39.570312 40.25 -38.960938 40.25 -38.328125 C 40.25 -37.804688 40.234375 -37.269531 40.203125 -36.71875 C 40.171875 -36.175781 40.125 -35.617188 40.0625 -35.046875 C 39.9375 -32.859375 39.628906 -30.664062 39.140625 -28.46875 C 38.660156 -26.28125 38.003906 -24.128906 37.171875 -22.015625 C 36.265625 -19.890625 35.210938 -17.859375 34.015625 -15.921875 C 32.828125 -13.992188 31.429688 -12.191406 29.828125 -10.515625 C 26.609375 -7.046875 22.875 -4.378906 18.625 -2.515625 C 17.34375 -1.929688 15.960938 -1.445312 14.484375 -1.0625 L 14.484375 -0.875 L 14 -0.875 C 11.039062 -0.09375 8.078125 0.296875 5.109375 0.296875 L 5.109375 -5.796875 L 3.859375 -66.3125 L 4.15625 -66.3125 L 4.046875 -66.703125 C 6.242188 -67.210938 8.515625 -67.53125 10.859375 -67.65625 C 13.210938 -67.789062 15.578125 -67.601562 17.953125 -67.09375 C 20.335938 -66.570312 22.59375 -65.765625 24.71875 -64.671875 C 26.90625 -63.578125 28.863281 -62.195312 30.59375 -60.53125 C 32.394531 -58.851562 33.941406 -57.015625 35.234375 -55.015625 C 36.523438 -53.023438 37.554688 -50.9375 38.328125 -48.75 C 39.160156 -46.5625 39.707031 -44.273438 39.96875 -41.890625 Z M 30.890625 -35.71875 C 30.890625 -36.164062 30.90625 -36.613281 30.9375 -37.0625 C 30.96875 -37.519531 30.984375 -37.972656 30.984375 -38.421875 C 30.984375 -38.804688 30.96875 -39.191406 30.9375 -39.578125 C 30.90625 -39.960938 30.859375 -40.347656 30.796875 -40.734375 C 30.597656 -42.410156 30.210938 -44.019531 29.640625 -45.5625 C 28.410156 -48.84375 26.640625 -51.546875 24.328125 -53.671875 C 21.941406 -55.921875 19.175781 -57.367188 16.03125 -58.015625 C 15.1875 -58.210938 14.285156 -58.3125 13.328125 -58.3125 L 14.28125 -10.8125 C 14.414062 -10.8125 14.53125 -10.828125 14.625 -10.859375 C 14.71875 -10.890625 14.796875 -10.9375 14.859375 -11 C 17.953125 -12.351562 20.691406 -14.316406 23.078125 -16.890625 C 25.390625 -19.335938 27.222656 -22.203125 28.578125 -25.484375 C 29.859375 -28.703125 30.628906 -32.113281 30.890625 -35.71875 Z M 30.890625 -35.71875 "/></g></g></g><g fill="#d0e0e1" fill-opacity="1"><g transform="translate(44.878027, 97.149409)"><g><path d="M 24.328125 -21.140625 C 24.453125 -21.523438 24.515625 -21.847656 24.515625 -22.109375 L 33.78125 -21.625 C 33.71875 -20.976562 33.617188 -20.347656 33.484375 -19.734375 C 33.359375 -19.128906 33.203125 -18.566406 33.015625 -18.046875 C 32.628906 -16.953125 32.144531 -15.925781 31.5625 -14.96875 C 30.851562 -13.9375 30.082031 -13.035156 29.25 -12.265625 C 28.21875 -11.296875 27.125 -10.585938 25.96875 -10.140625 C 25.84375 -10.078125 25.679688 -10.007812 25.484375 -9.9375 L 25.09375 -9.84375 L 24.421875 -9.5625 C 24.296875 -9.488281 24.164062 -9.4375 24.03125 -9.40625 C 23.90625 -9.375 23.742188 -9.328125 23.546875 -9.265625 L 22.78125 -9.171875 C 22.269531 -9.046875 21.722656 -8.945312 21.140625 -8.875 C 20.554688 -8.8125 19.976562 -8.78125 19.40625 -8.78125 C 17.15625 -8.84375 14.96875 -9.421875 12.84375 -10.515625 C 10.90625 -11.546875 9.195312 -12.929688 7.71875 -14.671875 C 6.300781 -16.410156 5.273438 -18.3125 4.640625 -20.375 C 4.503906 -20.625 4.40625 -20.894531 4.34375 -21.1875 C 4.28125 -21.476562 4.25 -21.785156 4.25 -22.109375 L 4.15625 -22.484375 C 4.15625 -22.554688 4.132812 -22.625 4.09375 -22.6875 C 4.0625 -22.75 4.046875 -22.8125 4.046875 -22.875 C 4.046875 -23.007812 4.046875 -23.140625 4.046875 -23.265625 C 4.046875 -23.390625 4.015625 -23.484375 3.953125 -23.546875 C 3.890625 -24.453125 3.859375 -25.421875 3.859375 -26.453125 C 3.859375 -28.378906 4.082031 -30.273438 4.53125 -32.140625 C 4.914062 -33.941406 5.5 -35.742188 6.28125 -37.546875 C 6.664062 -38.390625 7.144531 -39.273438 7.71875 -40.203125 C 8.300781 -41.140625 9.007812 -42.023438 9.84375 -42.859375 C 10.675781 -43.691406 11.609375 -44.398438 12.640625 -44.984375 C 13.609375 -45.566406 14.671875 -46.015625 15.828125 -46.328125 C 16.921875 -46.648438 18.078125 -46.84375 19.296875 -46.90625 C 20.523438 -46.976562 21.785156 -46.851562 23.078125 -46.53125 C 24.296875 -46.207031 25.453125 -45.660156 26.546875 -44.890625 C 27.515625 -44.242188 28.414062 -43.46875 29.25 -42.5625 C 29.570312 -42.175781 29.894531 -41.757812 30.21875 -41.3125 L 30.3125 -41.125 L 30.5 -40.921875 L 30.703125 -40.546875 C 30.828125 -40.347656 30.984375 -40.054688 31.171875 -39.671875 C 31.429688 -39.160156 31.65625 -38.660156 31.84375 -38.171875 C 32.039062 -37.691406 32.238281 -37.226562 32.4375 -36.78125 C 32.695312 -35.875 32.9375 -34.988281 33.15625 -34.125 C 33.382812 -33.257812 33.5625 -32.40625 33.6875 -31.5625 C 33.75 -31.113281 33.8125 -30.679688 33.875 -30.265625 C 33.945312 -29.847656 34.015625 -29.410156 34.078125 -28.953125 C 34.140625 -28.503906 34.1875 -28.054688 34.21875 -27.609375 C 34.25 -27.160156 34.265625 -26.707031 34.265625 -26.25 L 25 -25.875 C 23.070312 -25.8125 21.109375 -25.710938 19.109375 -25.578125 C 17.117188 -25.453125 15.125 -25.320312 13.125 -25.1875 C 13.1875 -24.875 13.21875 -24.648438 13.21875 -24.515625 C 13.21875 -24.453125 13.21875 -24.367188 13.21875 -24.265625 C 13.21875 -24.171875 13.253906 -24.09375 13.328125 -24.03125 C 13.328125 -23.90625 13.328125 -23.84375 13.328125 -23.84375 L 13.328125 -23.65625 C 13.390625 -23.582031 13.421875 -23.5 13.421875 -23.40625 C 13.421875 -23.3125 13.453125 -23.203125 13.515625 -23.078125 C 13.773438 -22.171875 14.222656 -21.332031 14.859375 -20.5625 C 15.503906 -19.789062 16.25 -19.179688 17.09375 -18.734375 C 17.988281 -18.273438 18.820312 -18.046875 19.59375 -18.046875 C 19.789062 -18.109375 20 -18.140625 20.21875 -18.140625 C 20.445312 -18.140625 20.691406 -18.175781 20.953125 -18.25 L 21.328125 -18.34375 C 21.328125 -18.34375 21.359375 -18.34375 21.421875 -18.34375 C 21.492188 -18.34375 21.5625 -18.375 21.625 -18.4375 L 22.015625 -18.53125 L 22.203125 -18.625 C 22.265625 -18.625 22.296875 -18.625 22.296875 -18.625 C 22.554688 -18.757812 22.78125 -18.921875 22.96875 -19.109375 C 23.226562 -19.367188 23.488281 -19.660156 23.75 -19.984375 C 23.9375 -20.367188 24.128906 -20.753906 24.328125 -21.140625 Z M 16.40625 -36.296875 C 15.757812 -35.648438 15.210938 -34.78125 14.765625 -33.6875 C 14.703125 -33.625 14.640625 -33.460938 14.578125 -33.203125 C 16.054688 -33.335938 17.550781 -33.453125 19.0625 -33.546875 C 20.570312 -33.640625 22.101562 -33.71875 23.65625 -33.78125 C 23.582031 -33.84375 23.546875 -33.875 23.546875 -33.875 C 23.359375 -34.457031 23.164062 -34.941406 22.96875 -35.328125 C 22.90625 -35.523438 22.875 -35.625 22.875 -35.625 C 22.875 -35.625 22.84375 -35.65625 22.78125 -35.71875 L 22.6875 -35.8125 C 22.550781 -36.070312 22.390625 -36.265625 22.203125 -36.390625 C 21.691406 -37.035156 21.144531 -37.421875 20.5625 -37.546875 C 19.976562 -37.742188 19.269531 -37.710938 18.4375 -37.453125 C 18.050781 -37.328125 17.695312 -37.164062 17.375 -36.96875 C 17.050781 -36.78125 16.726562 -36.554688 16.40625 -36.296875 Z M 16.40625 -36.296875 "/></g></g></g><g fill="#d0e0e1" fill-opacity="1"><g transform="translate(83.102522, 97.149409)"><g><path d="M 27.609375 -19.40625 L 27.609375 -18.921875 C 27.796875 -17.703125 27.765625 -16.445312 27.515625 -15.15625 C 27.253906 -13.800781 26.738281 -12.578125 25.96875 -11.484375 C 25.195312 -10.390625 24.296875 -9.472656 23.265625 -8.734375 C 22.234375 -7.992188 21.140625 -7.460938 19.984375 -7.140625 C 18.890625 -6.816406 17.726562 -6.65625 16.5 -6.65625 C 15.34375 -6.65625 14.1875 -6.785156 13.03125 -7.046875 C 10.78125 -7.691406 8.816406 -8.914062 7.140625 -10.71875 C 6.429688 -11.550781 5.816406 -12.445312 5.296875 -13.40625 C 4.785156 -14.375 4.367188 -15.34375 4.046875 -16.3125 L 12.9375 -19.015625 C 13.195312 -18.179688 13.582031 -17.503906 14.09375 -16.984375 C 14.476562 -16.472656 14.960938 -16.15625 15.546875 -16.03125 C 15.867188 -15.957031 16.15625 -15.921875 16.40625 -15.921875 C 16.726562 -15.921875 17.019531 -15.957031 17.28125 -16.03125 C 17.726562 -16.15625 18.082031 -16.378906 18.34375 -16.703125 C 18.40625 -16.765625 18.4375 -16.894531 18.4375 -17.09375 C 18.5 -17.28125 18.5 -17.472656 18.4375 -17.671875 L 18.4375 -17.859375 C 18.375 -17.921875 18.34375 -18.015625 18.34375 -18.140625 C 18.34375 -18.140625 18.34375 -18.15625 18.34375 -18.1875 C 18.34375 -18.226562 18.3125 -18.25 18.25 -18.25 C 18.25 -18.25 18.25 -18.265625 18.25 -18.296875 C 18.25 -18.328125 18.25 -18.34375 18.25 -18.34375 C 18.175781 -18.40625 18.140625 -18.4375 18.140625 -18.4375 C 18.210938 -18.375 18.179688 -18.4375 18.046875 -18.625 L 17.953125 -18.734375 C 18.015625 -18.660156 17.984375 -18.660156 17.859375 -18.734375 C 17.734375 -18.921875 17.378906 -19.207031 16.796875 -19.59375 C 16.347656 -19.851562 15.832031 -20.144531 15.25 -20.46875 L 13.21875 -21.53125 C 12.894531 -21.71875 12.539062 -21.921875 12.15625 -22.140625 C 11.769531 -22.367188 11.351562 -22.644531 10.90625 -22.96875 L 9.75 -23.9375 C 9.363281 -24.257812 9.007812 -24.582031 8.6875 -24.90625 C 7.976562 -25.550781 7.332031 -26.320312 6.75 -27.21875 C 6.113281 -28.0625 5.601562 -28.960938 5.21875 -29.921875 C 4.757812 -30.953125 4.4375 -31.984375 4.25 -33.015625 C 4.050781 -34.234375 3.984375 -35.359375 4.046875 -36.390625 C 4.179688 -37.421875 4.410156 -38.515625 4.734375 -39.671875 C 5.503906 -42.054688 6.851562 -43.988281 8.78125 -45.46875 C 10.78125 -46.945312 13.035156 -47.71875 15.546875 -47.78125 C 17.984375 -47.84375 20.234375 -47.265625 22.296875 -46.046875 L 22.96875 -45.5625 C 23.101562 -45.5 23.234375 -45.429688 23.359375 -45.359375 C 23.484375 -45.296875 23.613281 -45.203125 23.75 -45.078125 C 24 -44.816406 24.222656 -44.59375 24.421875 -44.40625 C 24.617188 -44.28125 24.84375 -44.054688 25.09375 -43.734375 C 25.476562 -43.273438 25.816406 -42.820312 26.109375 -42.375 C 26.398438 -41.925781 26.675781 -41.476562 26.9375 -41.03125 C 27.832031 -39.289062 28.441406 -37.390625 28.765625 -35.328125 L 19.59375 -33.984375 C 19.40625 -35.015625 19.117188 -35.945312 18.734375 -36.78125 C 18.535156 -37.101562 18.335938 -37.390625 18.140625 -37.640625 C 18.015625 -37.710938 17.953125 -37.75 17.953125 -37.75 C 17.953125 -37.8125 17.953125 -37.84375 17.953125 -37.84375 C 17.953125 -37.84375 17.890625 -37.875 17.765625 -37.9375 C 17.703125 -38 17.632812 -38.03125 17.5625 -38.03125 C 17.050781 -38.351562 16.472656 -38.515625 15.828125 -38.515625 C 15.253906 -38.515625 14.804688 -38.351562 14.484375 -38.03125 C 14.023438 -37.707031 13.703125 -37.257812 13.515625 -36.6875 C 13.390625 -36.300781 13.328125 -35.976562 13.328125 -35.71875 C 13.328125 -35.457031 13.359375 -35.101562 13.421875 -34.65625 C 13.484375 -34.332031 13.578125 -33.976562 13.703125 -33.59375 C 13.898438 -33.207031 14.128906 -32.851562 14.390625 -32.53125 C 14.640625 -32.082031 14.925781 -31.726562 15.25 -31.46875 C 15.375 -31.34375 15.535156 -31.179688 15.734375 -30.984375 L 16.03125 -30.703125 L 16.3125 -30.5 C 16.695312 -30.25 17.179688 -29.960938 17.765625 -29.640625 L 19.6875 -28.671875 C 20.457031 -28.222656 21.164062 -27.769531 21.8125 -27.3125 C 22.257812 -27.0625 22.675781 -26.789062 23.0625 -26.5 C 23.457031 -26.207031 23.878906 -25.867188 24.328125 -25.484375 C 24.453125 -25.285156 24.546875 -25.1875 24.609375 -25.1875 L 24.90625 -24.8125 C 24.96875 -24.75 25.046875 -24.648438 25.140625 -24.515625 C 25.242188 -24.390625 25.359375 -24.257812 25.484375 -24.125 C 25.679688 -23.875 25.859375 -23.617188 26.015625 -23.359375 C 26.171875 -23.097656 26.347656 -22.804688 26.546875 -22.484375 C 26.671875 -22.234375 26.796875 -21.945312 26.921875 -21.625 C 27.054688 -21.300781 27.1875 -20.976562 27.3125 -20.65625 L 27.515625 -19.78125 Z M 27.609375 -19.40625 "/></g></g></g><g fill="#d0e0e1" fill-opacity="1"><g transform="translate(115.92154, 97.149409)"><g><path d="M 27.3125 -23.84375 C 27.445312 -18.882812 27.445312 -13.992188 27.3125 -9.171875 L 18.046875 -9.5625 C 18.046875 -9.75 18.046875 -9.972656 18.046875 -10.234375 C 18.046875 -10.492188 18.046875 -10.71875 18.046875 -10.90625 C 17.722656 -10.84375 17.5 -10.8125 17.375 -10.8125 C 16.726562 -10.6875 16.050781 -10.585938 15.34375 -10.515625 C 15.15625 -10.515625 14.976562 -10.5 14.8125 -10.46875 C 14.65625 -10.4375 14.476562 -10.421875 14.28125 -10.421875 C 14.09375 -10.421875 13.898438 -10.421875 13.703125 -10.421875 C 13.515625 -10.421875 13.320312 -10.453125 13.125 -10.515625 C 9.90625 -10.835938 7.171875 -12.191406 4.921875 -14.578125 C 3.828125 -15.796875 3.023438 -17.179688 2.515625 -18.734375 C 1.992188 -20.335938 1.832031 -21.941406 2.03125 -23.546875 C 2.15625 -25.097656 2.601562 -26.582031 3.375 -28 C 3.695312 -28.632812 4.117188 -29.304688 4.640625 -30.015625 C 5.148438 -30.597656 5.695312 -31.144531 6.28125 -31.65625 C 7.4375 -32.6875 8.703125 -33.472656 10.078125 -34.015625 C 11.460938 -34.566406 12.863281 -34.875 14.28125 -34.9375 C 15.375 -35.007812 16.46875 -34.976562 17.5625 -34.84375 C 17.5 -35.300781 17.453125 -35.753906 17.421875 -36.203125 C 17.390625 -36.648438 17.34375 -37.097656 17.28125 -37.546875 C 17.15625 -38.578125 16.960938 -39.476562 16.703125 -40.25 C 16.441406 -41.019531 16.117188 -41.695312 15.734375 -42.28125 C 15.410156 -42.726562 15.117188 -43.019531 14.859375 -43.15625 C 14.472656 -43.34375 14.117188 -43.40625 13.796875 -43.34375 C 13.671875 -43.34375 13.546875 -43.3125 13.421875 -43.25 C 13.285156 -43.1875 13.15625 -43.117188 13.03125 -43.046875 C 12.832031 -42.859375 12.703125 -42.695312 12.640625 -42.5625 L 12.546875 -42.5625 C 12.546875 -42.5625 12.515625 -42.5 12.453125 -42.375 L 12.265625 -41.984375 L 11.875 -41.40625 C 11.675781 -41.082031 11.546875 -40.859375 11.484375 -40.734375 C 11.421875 -40.609375 11.390625 -40.351562 11.390625 -39.96875 C 11.328125 -39.582031 11.28125 -39.097656 11.25 -38.515625 C 11.21875 -37.929688 11.203125 -37.351562 11.203125 -36.78125 L 1.9375 -36.96875 C 1.9375 -37.613281 1.953125 -38.238281 1.984375 -38.84375 C 2.015625 -39.457031 2.0625 -40.148438 2.125 -40.921875 C 2.1875 -41.316406 2.25 -41.753906 2.3125 -42.234375 C 2.375 -42.710938 2.503906 -43.210938 2.703125 -43.734375 C 2.898438 -44.242188 3.109375 -44.707031 3.328125 -45.125 C 3.554688 -45.539062 3.765625 -45.910156 3.953125 -46.234375 C 4.085938 -46.492188 4.28125 -46.816406 4.53125 -47.203125 L 4.828125 -47.59375 L 4.921875 -47.78125 L 5.109375 -48.078125 C 5.691406 -48.847656 6.398438 -49.585938 7.234375 -50.296875 C 8.910156 -51.640625 10.84375 -52.410156 13.03125 -52.609375 C 14.0625 -52.671875 15.09375 -52.601562 16.125 -52.40625 C 17.15625 -52.21875 18.117188 -51.898438 19.015625 -51.453125 C 19.921875 -51.003906 20.757812 -50.390625 21.53125 -49.609375 C 22.164062 -49.035156 22.773438 -48.332031 23.359375 -47.5 C 23.867188 -46.789062 24.300781 -46.066406 24.65625 -45.328125 C 25.007812 -44.585938 25.285156 -43.828125 25.484375 -43.046875 C 25.742188 -42.273438 25.953125 -41.535156 26.109375 -40.828125 C 26.273438 -40.117188 26.390625 -39.445312 26.453125 -38.8125 C 26.515625 -38.101562 26.578125 -37.425781 26.640625 -36.78125 C 26.703125 -36.132812 26.765625 -35.488281 26.828125 -34.84375 C 26.898438 -33.5 26.96875 -32.273438 27.03125 -31.171875 C 27.15625 -28.984375 27.25 -26.671875 27.3125 -24.234375 C 27.382812 -24.035156 27.421875 -23.9375 27.421875 -23.9375 L 27.3125 -23.9375 C 27.3125 -23.9375 27.3125 -23.921875 27.3125 -23.890625 C 27.3125 -23.859375 27.3125 -23.84375 27.3125 -23.84375 Z M 16.890625 -20.375 C 17.210938 -20.5625 17.503906 -20.816406 17.765625 -21.140625 C 17.890625 -21.335938 18.015625 -21.5625 18.140625 -21.8125 C 18.140625 -22.070312 18.140625 -22.363281 18.140625 -22.6875 C 18.140625 -23.007812 18.109375 -23.332031 18.046875 -23.65625 C 17.984375 -24.289062 17.726562 -24.769531 17.28125 -25.09375 C 17.019531 -25.351562 16.695312 -25.515625 16.3125 -25.578125 C 15.863281 -25.710938 15.414062 -25.742188 14.96875 -25.671875 C 13.9375 -25.609375 13.066406 -25.289062 12.359375 -24.71875 C 11.710938 -24.195312 11.328125 -23.488281 11.203125 -22.59375 C 11.203125 -22.269531 11.234375 -21.945312 11.296875 -21.625 C 11.421875 -21.363281 11.582031 -21.101562 11.78125 -20.84375 C 12.414062 -20.132812 13.15625 -19.75 14 -19.6875 C 14.0625 -19.6875 14.109375 -19.6875 14.140625 -19.6875 C 14.171875 -19.6875 14.21875 -19.6875 14.28125 -19.6875 C 14.28125 -19.6875 14.328125 -19.6875 14.421875 -19.6875 C 14.523438 -19.6875 14.609375 -19.6875 14.671875 -19.6875 C 14.929688 -19.75 15.222656 -19.816406 15.546875 -19.890625 C 15.992188 -19.953125 16.441406 -20.113281 16.890625 -20.375 Z M 16.890625 -20.375 "/></g></g></g><g fill="#d0e0e1" fill-opacity="1"><g transform="translate(147.485705, 97.149409)"><g><path d="M 34.078125 -32.046875 C 34.722656 -30.367188 35.078125 -28.628906 35.140625 -26.828125 C 35.203125 -23.296875 34.332031 -20.015625 32.53125 -16.984375 C 30.664062 -13.960938 28.09375 -11.710938 24.8125 -10.234375 C 23.132812 -9.523438 21.394531 -9.109375 19.59375 -8.984375 C 19.332031 -8.984375 19.085938 -8.984375 18.859375 -8.984375 C 18.640625 -8.984375 18.398438 -8.984375 18.140625 -8.984375 L 17.46875 -8.984375 C 17.34375 -8.984375 17.210938 -9 17.078125 -9.03125 C 16.953125 -9.0625 16.828125 -9.078125 16.703125 -9.078125 C 16.503906 -9.140625 16.28125 -9.203125 16.03125 -9.265625 C 16.03125 -8.941406 16.03125 -8.648438 16.03125 -8.390625 C 16.03125 -8.140625 16.03125 -7.882812 16.03125 -7.625 L 6.75 -7.34375 C 6.75 -9.144531 6.71875 -10.941406 6.65625 -12.734375 C 6.59375 -14.535156 6.5 -16.375 6.375 -18.25 C 6.375 -18.4375 6.375 -18.628906 6.375 -18.828125 C 6.3125 -19.015625 6.28125 -19.140625 6.28125 -19.203125 C 6.28125 -19.335938 6.28125 -19.5 6.28125 -19.6875 C 6.28125 -19.75 6.296875 -19.796875 6.328125 -19.828125 C 6.359375 -19.867188 6.375 -19.921875 6.375 -19.984375 C 6.238281 -22.429688 6.109375 -24.890625 5.984375 -27.359375 C 5.859375 -29.835938 5.726562 -32.300781 5.59375 -34.75 C 5.34375 -39.320312 5.070312 -43.890625 4.78125 -48.453125 C 4.488281 -53.023438 4.179688 -57.597656 3.859375 -62.171875 L 13.125 -62.84375 C 13.382812 -59.039062 13.640625 -55.222656 13.890625 -51.390625 C 14.148438 -47.566406 14.378906 -43.757812 14.578125 -39.96875 C 14.765625 -40.03125 14.953125 -40.109375 15.140625 -40.203125 C 15.335938 -40.296875 15.535156 -40.378906 15.734375 -40.453125 C 17.472656 -40.960938 19.273438 -41.1875 21.140625 -41.125 C 23.003906 -41.0625 24.773438 -40.675781 26.453125 -39.96875 C 28.253906 -39.195312 29.796875 -38.132812 31.078125 -36.78125 C 31.210938 -36.582031 31.359375 -36.398438 31.515625 -36.234375 C 31.679688 -36.078125 31.828125 -35.90625 31.953125 -35.71875 C 32.140625 -35.519531 32.296875 -35.304688 32.421875 -35.078125 C 32.554688 -34.859375 32.691406 -34.65625 32.828125 -34.46875 C 33.335938 -33.6875 33.753906 -32.878906 34.078125 -32.046875 Z M 24.609375 -21.8125 C 25.515625 -23.289062 25.9375 -24.835938 25.875 -26.453125 C 25.8125 -27.285156 25.648438 -28.023438 25.390625 -28.671875 C 25.253906 -28.929688 25.09375 -29.253906 24.90625 -29.640625 C 24.90625 -29.703125 24.875 -29.75 24.8125 -29.78125 C 24.75 -29.8125 24.71875 -29.890625 24.71875 -30.015625 C 24.644531 -30.015625 24.578125 -30.046875 24.515625 -30.109375 C 24.453125 -30.179688 24.421875 -30.25 24.421875 -30.3125 C 23.453125 -31.28125 22.226562 -31.796875 20.75 -31.859375 C 19.976562 -31.921875 19.269531 -31.820312 18.625 -31.5625 C 18.5625 -31.5625 18.5 -31.546875 18.4375 -31.515625 C 18.375 -31.484375 18.273438 -31.46875 18.140625 -31.46875 C 18.078125 -31.40625 18.015625 -31.359375 17.953125 -31.328125 C 17.890625 -31.296875 17.796875 -31.242188 17.671875 -31.171875 C 17.347656 -30.984375 17.085938 -30.789062 16.890625 -30.59375 C 16.441406 -30.207031 16.085938 -29.726562 15.828125 -29.15625 C 15.566406 -28.707031 15.375 -28.160156 15.25 -27.515625 C 15.375 -25.066406 15.503906 -22.523438 15.640625 -19.890625 C 15.703125 -19.753906 15.796875 -19.65625 15.921875 -19.59375 C 16.304688 -19.144531 16.789062 -18.757812 17.375 -18.4375 C 17.757812 -18.3125 18.015625 -18.25 18.140625 -18.25 C 18.140625 -18.25 18.15625 -18.25 18.1875 -18.25 C 18.226562 -18.25 18.28125 -18.25 18.34375 -18.25 L 18.53125 -18.25 C 18.59375 -18.25 18.671875 -18.25 18.765625 -18.25 C 18.867188 -18.25 18.953125 -18.25 19.015625 -18.25 C 19.722656 -18.3125 20.398438 -18.472656 21.046875 -18.734375 C 21.816406 -19.046875 22.492188 -19.460938 23.078125 -19.984375 C 23.710938 -20.554688 24.222656 -21.164062 24.609375 -21.8125 Z M 24.609375 -21.8125 "/></g></g></g><g fill="#d0e0e1" fill-opacity="1"><g transform="translate(186.48242, 97.149409)"><g><path d="M 27.3125 -23.84375 C 27.445312 -18.882812 27.445312 -13.992188 27.3125 -9.171875 L 18.046875 -9.5625 C 18.046875 -9.75 18.046875 -9.972656 18.046875 -10.234375 C 18.046875 -10.492188 18.046875 -10.71875 18.046875 -10.90625 C 17.722656 -10.84375 17.5 -10.8125 17.375 -10.8125 C 16.726562 -10.6875 16.050781 -10.585938 15.34375 -10.515625 C 15.15625 -10.515625 14.976562 -10.5 14.8125 -10.46875 C 14.65625 -10.4375 14.476562 -10.421875 14.28125 -10.421875 C 14.09375 -10.421875 13.898438 -10.421875 13.703125 -10.421875 C 13.515625 -10.421875 13.320312 -10.453125 13.125 -10.515625 C 9.90625 -10.835938 7.171875 -12.191406 4.921875 -14.578125 C 3.828125 -15.796875 3.023438 -17.179688 2.515625 -18.734375 C 1.992188 -20.335938 1.832031 -21.941406 2.03125 -23.546875 C 2.15625 -25.097656 2.601562 -26.582031 3.375 -28 C 3.695312 -28.632812 4.117188 -29.304688 4.640625 -30.015625 C 5.148438 -30.597656 5.695312 -31.144531 6.28125 -31.65625 C 7.4375 -32.6875 8.703125 -33.472656 10.078125 -34.015625 C 11.460938 -34.566406 12.863281 -34.875 14.28125 -34.9375 C 15.375 -35.007812 16.46875 -34.976562 17.5625 -34.84375 C 17.5 -35.300781 17.453125 -35.753906 17.421875 -36.203125 C 17.390625 -36.648438 17.34375 -37.097656 17.28125 -37.546875 C 17.15625 -38.578125 16.960938 -39.476562 16.703125 -40.25 C 16.441406 -41.019531 16.117188 -41.695312 15.734375 -42.28125 C 15.410156 -42.726562 15.117188 -43.019531 14.859375 -43.15625 C 14.472656 -43.34375 14.117188 -43.40625 13.796875 -43.34375 C 13.671875 -43.34375 13.546875 -43.3125 13.421875 -43.25 C 13.285156 -43.1875 13.15625 -43.117188 13.03125 -43.046875 C 12.832031 -42.859375 12.703125 -42.695312 12.640625 -42.5625 L 12.546875 -42.5625 C 12.546875 -42.5625 12.515625 -42.5 12.453125 -42.375 L 12.265625 -41.984375 L 11.875 -41.40625 C 11.675781 -41.082031 11.546875 -40.859375 11.484375 -40.734375 C 11.421875 -40.609375 11.390625 -40.351562 11.390625 -39.96875 C 11.328125 -39.582031 11.28125 -39.097656 11.25 -38.515625 C 11.21875 -37.929688 11.203125 -37.351562 11.203125 -36.78125 L 1.9375 -36.96875 C 1.9375 -37.613281 1.953125 -38.238281 1.984375 -38.84375 C 2.015625 -39.457031 2.0625 -40.148438 2.125 -40.921875 C 2.1875 -41.316406 2.25 -41.753906 2.3125 -42.234375 C 2.375 -42.710938 2.503906 -43.210938 2.703125 -43.734375 C 2.898438 -44.242188 3.109375 -44.707031 3.328125 -45.125 C 3.554688 -45.539062 3.765625 -45.910156 3.953125 -46.234375 C 4.085938 -46.492188 4.28125 -46.816406 4.53125 -47.203125 L 4.828125 -47.59375 L 4.921875 -47.78125 L 5.109375 -48.078125 C 5.691406 -48.847656 6.398438 -49.585938 7.234375 -50.296875 C 8.910156 -51.640625 10.84375 -52.410156 13.03125 -52.609375 C 14.0625 -52.671875 15.09375 -52.601562 16.125 -52.40625 C 17.15625 -52.21875 18.117188 -51.898438 19.015625 -51.453125 C 19.921875 -51.003906 20.757812 -50.390625 21.53125 -49.609375 C 22.164062 -49.035156 22.773438 -48.332031 23.359375 -47.5 C 23.867188 -46.789062 24.300781 -46.066406 24.65625 -45.328125 C 25.007812 -44.585938 25.285156 -43.828125 25.484375 -43.046875 C 25.742188 -42.273438 25.953125 -41.535156 26.109375 -40.828125 C 26.273438 -40.117188 26.390625 -39.445312 26.453125 -38.8125 C 26.515625 -38.101562 26.578125 -37.425781 26.640625 -36.78125 C 26.703125 -36.132812 26.765625 -35.488281 26.828125 -34.84375 C 26.898438 -33.5 26.96875 -32.273438 27.03125 -31.171875 C 27.15625 -28.984375 27.25 -26.671875 27.3125 -24.234375 C 27.382812 -24.035156 27.421875 -23.9375 27.421875 -23.9375 L 27.3125 -23.9375 C 27.3125 -23.9375 27.3125 -23.921875 27.3125 -23.890625 C 27.3125 -23.859375 27.3125 -23.84375 27.3125 -23.84375 Z M 16.890625 -20.375 C 17.210938 -20.5625 17.503906 -20.816406 17.765625 -21.140625 C 17.890625 -21.335938 18.015625 -21.5625 18.140625 -21.8125 C 18.140625 -22.070312 18.140625 -22.363281 18.140625 -22.6875 C 18.140625 -23.007812 18.109375 -23.332031 18.046875 -23.65625 C 17.984375 -24.289062 17.726562 -24.769531 17.28125 -25.09375 C 17.019531 -25.351562 16.695312 -25.515625 16.3125 -25.578125 C 15.863281 -25.710938 15.414062 -25.742188 14.96875 -25.671875 C 13.9375 -25.609375 13.066406 -25.289062 12.359375 -24.71875 C 11.710938 -24.195312 11.328125 -23.488281 11.203125 -22.59375 C 11.203125 -22.269531 11.234375 -21.945312 11.296875 -21.625 C 11.421875 -21.363281 11.582031 -21.101562 11.78125 -20.84375 C 12.414062 -20.132812 13.15625 -19.75 14 -19.6875 C 14.0625 -19.6875 14.109375 -19.6875 14.140625 -19.6875 C 14.171875 -19.6875 14.21875 -19.6875 14.28125 -19.6875 C 14.28125 -19.6875 14.328125 -19.6875 14.421875 -19.6875 C 14.523438 -19.6875 14.609375 -19.6875 14.671875 -19.6875 C 14.929688 -19.75 15.222656 -19.816406 15.546875 -19.890625 C 15.992188 -19.953125 16.441406 -20.113281 16.890625 -20.375 Z M 16.890625 -20.375 "/></g></g></g><g fill="#d0e0e1" fill-opacity="1"><g transform="translate(218.046585, 97.149409)"><g><path d="M 33.109375 -27.3125 C 33.304688 -24.226562 33.421875 -21.15625 33.453125 -18.09375 C 33.484375 -15.039062 33.53125 -12.003906 33.59375 -8.984375 L 24.328125 -8.78125 C 24.265625 -11.875 24.210938 -14.898438 24.171875 -17.859375 C 24.140625 -20.816406 24.03125 -23.773438 23.84375 -26.734375 C 23.78125 -27.441406 23.710938 -28.164062 23.640625 -28.90625 C 23.578125 -29.644531 23.515625 -30.367188 23.453125 -31.078125 C 23.453125 -31.460938 23.4375 -31.832031 23.40625 -32.1875 C 23.375 -32.539062 23.328125 -32.910156 23.265625 -33.296875 L 23.171875 -34.359375 L 23.078125 -34.84375 L 22.96875 -35.328125 C 22.78125 -36.617188 22.523438 -37.710938 22.203125 -38.609375 C 21.816406 -39.378906 21.398438 -39.925781 20.953125 -40.25 C 20.878906 -40.3125 20.796875 -40.375 20.703125 -40.4375 C 20.609375 -40.507812 20.59375 -40.546875 20.65625 -40.546875 C 20.59375 -40.546875 20.460938 -40.546875 20.265625 -40.546875 C 20.078125 -40.484375 19.851562 -40.382812 19.59375 -40.25 C 19.46875 -40.1875 19.335938 -40.125 19.203125 -40.0625 C 19.140625 -40 19.046875 -39.898438 18.921875 -39.765625 C 18.398438 -39.191406 17.945312 -38.421875 17.5625 -37.453125 C 17.375 -36.941406 17.179688 -36.363281 16.984375 -35.71875 L 16.40625 -33.59375 C 15.632812 -30.757812 14.957031 -27.941406 14.375 -25.140625 C 13.800781 -22.347656 13.453125 -19.535156 13.328125 -16.703125 L 13.21875 -16.703125 C 13.21875 -15.859375 13.203125 -15.019531 13.171875 -14.1875 C 13.140625 -13.351562 13.125 -12.519531 13.125 -11.6875 L 3.859375 -11.96875 C 4.054688 -18.34375 4.15625 -24.726562 4.15625 -31.125 C 4.15625 -37.53125 4.15625 -43.984375 4.15625 -50.484375 L 13.421875 -50.484375 C 13.421875 -49.390625 13.421875 -48.296875 13.421875 -47.203125 C 13.546875 -47.328125 13.609375 -47.390625 13.609375 -47.390625 C 14.054688 -47.773438 14.570312 -48.128906 15.15625 -48.453125 C 16.3125 -49.035156 17.503906 -49.421875 18.734375 -49.609375 C 19.367188 -49.742188 20.039062 -49.8125 20.75 -49.8125 C 21.457031 -49.8125 22.164062 -49.710938 22.875 -49.515625 C 23.582031 -49.328125 24.257812 -49.070312 24.90625 -48.75 C 25.226562 -48.625 25.515625 -48.460938 25.765625 -48.265625 C 26.023438 -48.066406 26.285156 -47.875 26.546875 -47.6875 C 27.054688 -47.300781 27.519531 -46.878906 27.9375 -46.421875 C 28.363281 -45.972656 28.769531 -45.523438 29.15625 -45.078125 C 29.726562 -44.179688 30.242188 -43.21875 30.703125 -42.1875 C 31.085938 -41.21875 31.390625 -40.28125 31.609375 -39.375 C 31.835938 -38.476562 32.015625 -37.582031 32.140625 -36.6875 L 32.234375 -36.109375 L 32.34375 -35.421875 L 32.4375 -34.265625 C 32.5 -33.878906 32.546875 -33.492188 32.578125 -33.109375 C 32.609375 -32.722656 32.65625 -32.335938 32.71875 -31.953125 C 32.789062 -31.179688 32.859375 -30.410156 32.921875 -29.640625 C 32.984375 -28.867188 33.046875 -28.09375 33.109375 -27.3125 Z M 33.109375 -27.3125 "/></g></g></g><g fill="#d0e0e1" fill-opacity="1"><g transform="translate(255.5954, 97.149409)"><g><path d="M 26.15625 -64.671875 L 35.421875 -64.09375 C 35.097656 -59.53125 34.789062 -54.945312 34.5 -50.34375 C 34.21875 -45.738281 33.945312 -41.148438 33.6875 -36.578125 C 33.425781 -32.015625 33.195312 -27.445312 33 -22.875 C 32.8125 -18.3125 32.65625 -13.773438 32.53125 -9.265625 L 23.265625 -9.453125 C 23.265625 -9.847656 23.265625 -10.238281 23.265625 -10.625 C 23.265625 -11.007812 23.265625 -11.394531 23.265625 -11.78125 C 22.941406 -11.71875 22.648438 -11.648438 22.390625 -11.578125 C 22.265625 -11.515625 22.132812 -11.484375 22 -11.484375 C 21.875 -11.484375 21.75 -11.453125 21.625 -11.390625 C 21.425781 -11.390625 21.265625 -11.375 21.140625 -11.34375 C 21.015625 -11.3125 20.882812 -11.296875 20.75 -11.296875 C 20.5625 -11.296875 20.335938 -11.296875 20.078125 -11.296875 C 19.816406 -11.296875 19.5625 -11.296875 19.3125 -11.296875 C 18.46875 -11.296875 17.53125 -11.390625 16.5 -11.578125 C 14.695312 -12.035156 12.992188 -12.742188 11.390625 -13.703125 C 9.972656 -14.671875 8.65625 -15.863281 7.4375 -17.28125 C 7.175781 -17.664062 6.914062 -18.019531 6.65625 -18.34375 C 6.53125 -18.53125 6.398438 -18.71875 6.265625 -18.90625 C 6.140625 -19.101562 6.015625 -19.300781 5.890625 -19.5 C 5.765625 -19.6875 5.648438 -19.894531 5.546875 -20.125 C 5.453125 -20.351562 5.34375 -20.5625 5.21875 -20.75 C 5.019531 -21.269531 4.859375 -21.722656 4.734375 -22.109375 C 4.148438 -23.773438 3.859375 -25.546875 3.859375 -27.421875 C 3.859375 -29.222656 4.179688 -30.988281 4.828125 -32.71875 L 5.015625 -33.40625 L 5.3125 -33.984375 C 5.375 -34.171875 5.453125 -34.359375 5.546875 -34.546875 C 5.648438 -34.742188 5.765625 -34.972656 5.890625 -35.234375 C 5.953125 -35.429688 6.046875 -35.625 6.171875 -35.8125 C 6.304688 -36.007812 6.4375 -36.203125 6.5625 -36.390625 C 6.625 -36.515625 6.753906 -36.707031 6.953125 -36.96875 L 7.4375 -37.546875 C 8.59375 -39.023438 10.101562 -40.21875 11.96875 -41.125 C 13.644531 -41.957031 15.414062 -42.472656 17.28125 -42.671875 C 19.789062 -42.992188 22.269531 -42.640625 24.71875 -41.609375 C 24.90625 -45.460938 25.128906 -49.320312 25.390625 -53.1875 C 25.648438 -57.050781 25.90625 -60.878906 26.15625 -64.671875 Z M 23.75 -24.328125 C 23.8125 -25.160156 23.859375 -25.992188 23.890625 -26.828125 C 23.921875 -27.671875 23.96875 -28.507812 24.03125 -29.34375 C 23.90625 -30.050781 23.710938 -30.597656 23.453125 -30.984375 C 23.203125 -31.566406 22.816406 -32.050781 22.296875 -32.4375 C 21.078125 -33.332031 19.726562 -33.6875 18.25 -33.5 C 16.632812 -33.300781 15.410156 -32.6875 14.578125 -31.65625 C 14.578125 -31.59375 14.546875 -31.53125 14.484375 -31.46875 C 14.421875 -31.40625 14.351562 -31.34375 14.28125 -31.28125 C 14.28125 -31.207031 14.25 -31.140625 14.1875 -31.078125 C 14.125 -31.015625 14.0625 -30.921875 14 -30.796875 C 13.863281 -30.535156 13.796875 -30.375 13.796875 -30.3125 L 13.609375 -30.015625 L 13.515625 -29.734375 C 13.253906 -28.960938 13.125 -28.15625 13.125 -27.3125 C 13.125 -26.539062 13.253906 -25.800781 13.515625 -25.09375 C 13.515625 -24.96875 13.578125 -24.804688 13.703125 -24.609375 C 13.703125 -24.484375 13.734375 -24.390625 13.796875 -24.328125 C 13.867188 -24.265625 13.90625 -24.195312 13.90625 -24.125 C 13.96875 -24.0625 14.03125 -24 14.09375 -23.9375 C 14.15625 -23.875 14.1875 -23.78125 14.1875 -23.65625 C 14.320312 -23.519531 14.453125 -23.359375 14.578125 -23.171875 C 15.734375 -21.816406 17.050781 -20.976562 18.53125 -20.65625 C 18.914062 -20.59375 19.238281 -20.5625 19.5 -20.5625 C 19.5625 -20.5625 19.640625 -20.5625 19.734375 -20.5625 C 19.835938 -20.5625 19.921875 -20.5625 19.984375 -20.5625 C 19.984375 -20.5625 20.046875 -20.5625 20.171875 -20.5625 C 20.234375 -20.5625 20.265625 -20.5625 20.265625 -20.5625 C 20.265625 -20.5625 20.300781 -20.5625 20.375 -20.5625 C 20.882812 -20.75 21.394531 -21.039062 21.90625 -21.4375 C 22.488281 -21.882812 22.941406 -22.394531 23.265625 -22.96875 C 23.453125 -23.289062 23.578125 -23.5625 23.640625 -23.78125 C 23.710938 -24.007812 23.75 -24.191406 23.75 -24.328125 Z M 23.75 -24.328125 "/></g></g></g><g fill="#d0e0e1" fill-opacity="1"><g transform="translate(295.074749, 97.149409)"><g><path d="M 37.265625 -33.59375 C 37.585938 -31.40625 37.519531 -29.1875 37.0625 -26.9375 C 36.613281 -24.8125 35.8125 -22.816406 34.65625 -20.953125 C 33.4375 -18.953125 31.925781 -17.3125 30.125 -16.03125 C 28.25 -14.613281 26.15625 -13.675781 23.84375 -13.21875 C 22.6875 -12.96875 21.546875 -12.859375 20.421875 -12.890625 C 19.296875 -12.921875 18.1875 -13.03125 17.09375 -13.21875 C 15.988281 -13.414062 14.921875 -13.722656 13.890625 -14.140625 C 12.867188 -14.554688 11.875 -15.085938 10.90625 -15.734375 C 8.914062 -17.085938 7.304688 -18.789062 6.078125 -20.84375 C 4.921875 -22.78125 4.210938 -24.9375 3.953125 -27.3125 C 3.828125 -28.40625 3.8125 -29.484375 3.90625 -30.546875 C 4 -31.609375 4.144531 -32.65625 4.34375 -33.6875 C 4.539062 -34.65625 4.816406 -35.648438 5.171875 -36.671875 C 5.523438 -37.703125 5.957031 -38.671875 6.46875 -39.578125 C 7.625 -41.640625 9.070312 -43.34375 10.8125 -44.6875 C 11.457031 -45.207031 12.066406 -45.609375 12.640625 -45.890625 C 13.222656 -46.179688 13.804688 -46.425781 14.390625 -46.625 C 15.410156 -46.945312 16.503906 -47.203125 17.671875 -47.390625 C 19.660156 -47.648438 21.71875 -47.648438 23.84375 -47.390625 C 24.425781 -47.328125 24.972656 -47.234375 25.484375 -47.109375 C 26.128906 -46.984375 26.707031 -46.820312 27.21875 -46.625 C 28.375 -46.175781 29.4375 -45.597656 30.40625 -44.890625 C 31.375 -44.242188 32.273438 -43.46875 33.109375 -42.5625 C 33.492188 -42.113281 33.847656 -41.632812 34.171875 -41.125 C 34.367188 -40.863281 34.53125 -40.640625 34.65625 -40.453125 L 35.046875 -39.671875 C 36.140625 -37.804688 36.878906 -35.78125 37.265625 -33.59375 Z M 28 -28.859375 C 28.25 -29.953125 28.28125 -31.015625 28.09375 -32.046875 C 27.894531 -33.203125 27.539062 -34.234375 27.03125 -35.140625 C 26.644531 -35.710938 26.351562 -36.128906 26.15625 -36.390625 C 25.832031 -36.773438 25.507812 -37.097656 25.1875 -37.359375 C 24.800781 -37.546875 24.414062 -37.738281 24.03125 -37.9375 C 23.84375 -38 23.617188 -38.0625 23.359375 -38.125 C 23.359375 -38.125 23.265625 -38.125 23.078125 -38.125 C 23.003906 -38.1875 22.875 -38.21875 22.6875 -38.21875 C 21.394531 -38.351562 20.140625 -38.351562 18.921875 -38.21875 C 18.335938 -38.09375 17.820312 -37.96875 17.375 -37.84375 C 17.050781 -37.707031 16.796875 -37.578125 16.609375 -37.453125 C 14.992188 -36.171875 13.929688 -34.273438 13.421875 -31.765625 C 13.160156 -30.535156 13.09375 -29.40625 13.21875 -28.375 C 13.351562 -27.28125 13.644531 -26.316406 14.09375 -25.484375 C 15.125 -23.804688 16.734375 -22.742188 18.921875 -22.296875 C 21.046875 -21.847656 22.941406 -22.234375 24.609375 -23.453125 C 25.453125 -24.097656 26.160156 -24.875 26.734375 -25.78125 C 27.378906 -26.800781 27.800781 -27.828125 28 -28.859375 Z M 28 -28.859375 "/></g></g></g><g fill="#d0e0e1" fill-opacity="1"><g transform="translate(336.484609, 97.149409)"><g><path d="M 33.109375 -27.3125 C 33.304688 -24.226562 33.421875 -21.15625 33.453125 -18.09375 C 33.484375 -15.039062 33.53125 -12.003906 33.59375 -8.984375 L 24.328125 -8.78125 C 24.265625 -11.875 24.210938 -14.898438 24.171875 -17.859375 C 24.140625 -20.816406 24.03125 -23.773438 23.84375 -26.734375 C 23.78125 -27.441406 23.710938 -28.164062 23.640625 -28.90625 C 23.578125 -29.644531 23.515625 -30.367188 23.453125 -31.078125 C 23.453125 -31.460938 23.4375 -31.832031 23.40625 -32.1875 C 23.375 -32.539062 23.328125 -32.910156 23.265625 -33.296875 L 23.171875 -34.359375 L 23.078125 -34.84375 L 22.96875 -35.328125 C 22.78125 -36.617188 22.523438 -37.710938 22.203125 -38.609375 C 21.816406 -39.378906 21.398438 -39.925781 20.953125 -40.25 C 20.878906 -40.3125 20.796875 -40.375 20.703125 -40.4375 C 20.609375 -40.507812 20.59375 -40.546875 20.65625 -40.546875 C 20.59375 -40.546875 20.460938 -40.546875 20.265625 -40.546875 C 20.078125 -40.484375 19.851562 -40.382812 19.59375 -40.25 C 19.46875 -40.1875 19.335938 -40.125 19.203125 -40.0625 C 19.140625 -40 19.046875 -39.898438 18.921875 -39.765625 C 18.398438 -39.191406 17.945312 -38.421875 17.5625 -37.453125 C 17.375 -36.941406 17.179688 -36.363281 16.984375 -35.71875 L 16.40625 -33.59375 C 15.632812 -30.757812 14.957031 -27.941406 14.375 -25.140625 C 13.800781 -22.347656 13.453125 -19.535156 13.328125 -16.703125 L 13.21875 -16.703125 C 13.21875 -15.859375 13.203125 -15.019531 13.171875 -14.1875 C 13.140625 -13.351562 13.125 -12.519531 13.125 -11.6875 L 3.859375 -11.96875 C 4.054688 -18.34375 4.15625 -24.726562 4.15625 -31.125 C 4.15625 -37.53125 4.15625 -43.984375 4.15625 -50.484375 L 13.421875 -50.484375 C 13.421875 -49.390625 13.421875 -48.296875 13.421875 -47.203125 C 13.546875 -47.328125 13.609375 -47.390625 13.609375 -47.390625 C 14.054688 -47.773438 14.570312 -48.128906 15.15625 -48.453125 C 16.3125 -49.035156 17.503906 -49.421875 18.734375 -49.609375 C 19.367188 -49.742188 20.039062 -49.8125 20.75 -49.8125 C 21.457031 -49.8125 22.164062 -49.710938 22.875 -49.515625 C 23.582031 -49.328125 24.257812 -49.070312 24.90625 -48.75 C 25.226562 -48.625 25.515625 -48.460938 25.765625 -48.265625 C 26.023438 -48.066406 26.285156 -47.875 26.546875 -47.6875 C 27.054688 -47.300781 27.519531 -46.878906 27.9375 -46.421875 C 28.363281 -45.972656 28.769531 -45.523438 29.15625 -45.078125 C 29.726562 -44.179688 30.242188 -43.21875 30.703125 -42.1875 C 31.085938 -41.21875 31.390625 -40.28125 31.609375 -39.375 C 31.835938 -38.476562 32.015625 -37.582031 32.140625 -36.6875 L 32.234375 -36.109375 L 32.34375 -35.421875 L 32.4375 -34.265625 C 32.5 -33.878906 32.546875 -33.492188 32.578125 -33.109375 C 32.609375 -32.722656 32.65625 -32.335938 32.71875 -31.953125 C 32.789062 -31.179688 32.859375 -30.410156 32.921875 -29.640625 C 32.984375 -28.867188 33.046875 -28.09375 33.109375 -27.3125 Z M 33.109375 -27.3125 "/></g></g></g><g fill="#d0e0e1" fill-opacity="1"><g transform="translate(374.033447, 97.149409)"><g><path d="M 24.328125 -21.140625 C 24.453125 -21.523438 24.515625 -21.847656 24.515625 -22.109375 L 33.78125 -21.625 C 33.71875 -20.976562 33.617188 -20.347656 33.484375 -19.734375 C 33.359375 -19.128906 33.203125 -18.566406 33.015625 -18.046875 C 32.628906 -16.953125 32.144531 -15.925781 31.5625 -14.96875 C 30.851562 -13.9375 30.082031 -13.035156 29.25 -12.265625 C 28.21875 -11.296875 27.125 -10.585938 25.96875 -10.140625 C 25.84375 -10.078125 25.679688 -10.007812 25.484375 -9.9375 L 25.09375 -9.84375 L 24.421875 -9.5625 C 24.296875 -9.488281 24.164062 -9.4375 24.03125 -9.40625 C 23.90625 -9.375 23.742188 -9.328125 23.546875 -9.265625 L 22.78125 -9.171875 C 22.269531 -9.046875 21.722656 -8.945312 21.140625 -8.875 C 20.554688 -8.8125 19.976562 -8.78125 19.40625 -8.78125 C 17.15625 -8.84375 14.96875 -9.421875 12.84375 -10.515625 C 10.90625 -11.546875 9.195312 -12.929688 7.71875 -14.671875 C 6.300781 -16.410156 5.273438 -18.3125 4.640625 -20.375 C 4.503906 -20.625 4.40625 -20.894531 4.34375 -21.1875 C 4.28125 -21.476562 4.25 -21.785156 4.25 -22.109375 L 4.15625 -22.484375 C 4.15625 -22.554688 4.132812 -22.625 4.09375 -22.6875 C 4.0625 -22.75 4.046875 -22.8125 4.046875 -22.875 C 4.046875 -23.007812 4.046875 -23.140625 4.046875 -23.265625 C 4.046875 -23.390625 4.015625 -23.484375 3.953125 -23.546875 C 3.890625 -24.453125 3.859375 -25.421875 3.859375 -26.453125 C 3.859375 -28.378906 4.082031 -30.273438 4.53125 -32.140625 C 4.914062 -33.941406 5.5 -35.742188 6.28125 -37.546875 C 6.664062 -38.390625 7.144531 -39.273438 7.71875 -40.203125 C 8.300781 -41.140625 9.007812 -42.023438 9.84375 -42.859375 C 10.675781 -43.691406 11.609375 -44.398438 12.640625 -44.984375 C 13.609375 -45.566406 14.671875 -46.015625 15.828125 -46.328125 C 16.921875 -46.648438 18.078125 -46.84375 19.296875 -46.90625 C 20.523438 -46.976562 21.785156 -46.851562 23.078125 -46.53125 C 24.296875 -46.207031 25.453125 -45.660156 26.546875 -44.890625 C 27.515625 -44.242188 28.414062 -43.46875 29.25 -42.5625 C 29.570312 -42.175781 29.894531 -41.757812 30.21875 -41.3125 L 30.3125 -41.125 L 30.5 -40.921875 L 30.703125 -40.546875 C 30.828125 -40.347656 30.984375 -40.054688 31.171875 -39.671875 C 31.429688 -39.160156 31.65625 -38.660156 31.84375 -38.171875 C 32.039062 -37.691406 32.238281 -37.226562 32.4375 -36.78125 C 32.695312 -35.875 32.9375 -34.988281 33.15625 -34.125 C 33.382812 -33.257812 33.5625 -32.40625 33.6875 -31.5625 C 33.75 -31.113281 33.8125 -30.679688 33.875 -30.265625 C 33.945312 -29.847656 34.015625 -29.410156 34.078125 -28.953125 C 34.140625 -28.503906 34.1875 -28.054688 34.21875 -27.609375 C 34.25 -27.160156 34.265625 -26.707031 34.265625 -26.25 L 25 -25.875 C 23.070312 -25.8125 21.109375 -25.710938 19.109375 -25.578125 C 17.117188 -25.453125 15.125 -25.320312 13.125 -25.1875 C 13.1875 -24.875 13.21875 -24.648438 13.21875 -24.515625 C 13.21875 -24.453125 13.21875 -24.367188 13.21875 -24.265625 C 13.21875 -24.171875 13.253906 -24.09375 13.328125 -24.03125 C 13.328125 -23.90625 13.328125 -23.84375 13.328125 -23.84375 L 13.328125 -23.65625 C 13.390625 -23.582031 13.421875 -23.5 13.421875 -23.40625 C 13.421875 -23.3125 13.453125 -23.203125 13.515625 -23.078125 C 13.773438 -22.171875 14.222656 -21.332031 14.859375 -20.5625 C 15.503906 -19.789062 16.25 -19.179688 17.09375 -18.734375 C 17.988281 -18.273438 18.820312 -18.046875 19.59375 -18.046875 C 19.789062 -18.109375 20 -18.140625 20.21875 -18.140625 C 20.445312 -18.140625 20.691406 -18.175781 20.953125 -18.25 L 21.328125 -18.34375 C 21.328125 -18.34375 21.359375 -18.34375 21.421875 -18.34375 C 21.492188 -18.34375 21.5625 -18.375 21.625 -18.4375 L 22.015625 -18.53125 L 22.203125 -18.625 C 22.265625 -18.625 22.296875 -18.625 22.296875 -18.625 C 22.554688 -18.757812 22.78125 -18.921875 22.96875 -19.109375 C 23.226562 -19.367188 23.488281 -19.660156 23.75 -19.984375 C 23.9375 -20.367188 24.128906 -20.753906 24.328125 -21.140625 Z M 16.40625 -36.296875 C 15.757812 -35.648438 15.210938 -34.78125 14.765625 -33.6875 C 14.703125 -33.625 14.640625 -33.460938 14.578125 -33.203125 C 16.054688 -33.335938 17.550781 -33.453125 19.0625 -33.546875 C 20.570312 -33.640625 22.101562 -33.71875 23.65625 -33.78125 C 23.582031 -33.84375 23.546875 -33.875 23.546875 -33.875 C 23.359375 -34.457031 23.164062 -34.941406 22.96875 -35.328125 C 22.90625 -35.523438 22.875 -35.625 22.875 -35.625 C 22.875 -35.625 22.84375 -35.65625 22.78125 -35.71875 L 22.6875 -35.8125 C 22.550781 -36.070312 22.390625 -36.265625 22.203125 -36.390625 C 21.691406 -37.035156 21.144531 -37.421875 20.5625 -37.546875 C 19.976562 -37.742188 19.269531 -37.710938 18.4375 -37.453125 C 18.050781 -37.328125 17.695312 -37.164062 17.375 -36.96875 C 17.050781 -36.78125 16.726562 -36.554688 16.40625 -36.296875 Z M 16.40625 -36.296875 "/></g></g></g><g fill="#d0e0e1" fill-opacity="1"><g transform="translate(412.265297, 97.149409)"><g/></g></g><g fill="#d0e0e1" fill-opacity="1"><g transform="translate(412.265297, 97.149409)"><g/></g></g><g clip-path="url(#d3fc60fe0e)"><g fill="#d0e0e1" fill-opacity="1"><g transform="translate(430.420392, 97.149409)"><g/></g></g></g><g fill="#d0e0e1" fill-opacity="1"><g transform="translate(46.563104, 193.102018)"><g><path d="M 26.828125 -38.90625 L 27.03125 -29.640625 L 17.765625 -29.4375 C 17.953125 -22.613281 18.367188 -15.953125 19.015625 -9.453125 L 9.75 -8.59375 C 9.101562 -15.351562 8.6875 -22.207031 8.5 -29.15625 L 4.046875 -29.0625 L 3.859375 -38.328125 L 8.296875 -38.421875 C 8.296875 -39.773438 8.296875 -41.125 8.296875 -42.46875 C 8.296875 -43.820312 8.328125 -45.144531 8.390625 -46.4375 C 8.390625 -47.269531 8.40625 -48.085938 8.4375 -48.890625 C 8.476562 -49.691406 8.53125 -50.546875 8.59375 -51.453125 C 8.65625 -52.285156 8.765625 -53.1875 8.921875 -54.15625 C 9.085938 -55.125 9.332031 -56.117188 9.65625 -57.140625 C 10.039062 -58.171875 10.519531 -59.171875 11.09375 -60.140625 C 11.738281 -61.171875 12.484375 -62.101562 13.328125 -62.9375 C 13.710938 -63.382812 14.175781 -63.785156 14.71875 -64.140625 C 15.269531 -64.492188 15.863281 -64.832031 16.5 -65.15625 C 17.851562 -65.738281 19.269531 -66.03125 20.75 -66.03125 C 22.039062 -66.03125 23.363281 -65.769531 24.71875 -65.25 C 25.8125 -64.800781 26.835938 -64.191406 27.796875 -63.421875 C 28.703125 -62.710938 29.539062 -61.90625 30.3125 -61 C 30.695312 -60.488281 31.019531 -60.039062 31.28125 -59.65625 C 31.34375 -59.53125 31.40625 -59.398438 31.46875 -59.265625 C 31.53125 -59.140625 31.59375 -59.015625 31.65625 -58.890625 L 31.859375 -58.5 L 32.046875 -58.203125 C 32.492188 -57.242188 32.878906 -56.34375 33.203125 -55.5 C 33.523438 -54.539062 33.785156 -53.546875 33.984375 -52.515625 C 34.109375 -51.484375 34.1875 -50.53125 34.21875 -49.65625 C 34.25 -48.789062 34.296875 -47.941406 34.359375 -47.109375 L 25.09375 -47.015625 C 25.03125 -47.722656 24.984375 -48.410156 24.953125 -49.078125 C 24.921875 -49.753906 24.875 -50.382812 24.8125 -50.96875 C 24.613281 -51.9375 24.257812 -52.96875 23.75 -54.0625 L 23.65625 -54.25 L 23.546875 -54.4375 C 23.421875 -54.570312 23.359375 -54.671875 23.359375 -54.734375 C 23.296875 -54.796875 23.203125 -54.957031 23.078125 -55.21875 C 22.753906 -55.539062 22.429688 -55.828125 22.109375 -56.078125 C 21.585938 -56.535156 21.101562 -56.765625 20.65625 -56.765625 C 20.53125 -56.765625 20.398438 -56.726562 20.265625 -56.65625 C 20.078125 -56.59375 19.882812 -56.46875 19.6875 -56.28125 C 19.175781 -55.757812 18.757812 -55.050781 18.4375 -54.15625 C 18.113281 -53.1875 17.921875 -52.023438 17.859375 -50.671875 C 17.796875 -50.035156 17.75 -49.328125 17.71875 -48.546875 C 17.6875 -47.773438 17.671875 -47.003906 17.671875 -46.234375 C 17.597656 -45.015625 17.5625 -43.757812 17.5625 -42.46875 C 17.5625 -41.1875 17.5625 -39.929688 17.5625 -38.703125 Z M 26.828125 -38.90625 "/></g></g></g><g fill="#d0e0e1" fill-opacity="1"><g transform="translate(83.447234, 193.102018)"><g/></g></g><g fill="#d0e0e1" fill-opacity="1"><g transform="translate(83.447234, 193.102018)"><g/></g></g><g fill="#d0e0e1" fill-opacity="1"><g transform="translate(101.59422, 193.102018)"><g/></g></g><g fill="#d0e0e1" fill-opacity="1"><g transform="translate(119.741207, 193.102018)"><g/></g></g><g fill="#d0e0e1" fill-opacity="1"><g transform="translate(137.888193, 193.102018)"><g/></g></g><g fill="#d0e0e1" fill-opacity="1"><g transform="translate(156.035179, 193.102018)"><g/></g></g><g fill="#d0e0e1" fill-opacity="1"><g transform="translate(174.182165, 193.102018)"><g/></g></g><g fill="#d0e0e1" fill-opacity="1"><g transform="translate(192.329152, 193.102018)"><g/></g></g><g fill="#d0e0e1" fill-opacity="1"><g transform="translate(210.486052, 193.102018)"><g/></g></g><g fill="#d0e0e1" fill-opacity="1"><g transform="translate(210.486052, 193.102018)"><g><path d="M 34.5625 -23.546875 C 34.6875 -21.171875 34.203125 -18.921875 33.109375 -16.796875 C 32.597656 -15.828125 31.988281 -14.925781 31.28125 -14.09375 C 30.4375 -13.1875 29.597656 -12.414062 28.765625 -11.78125 C 27.796875 -11.132812 26.765625 -10.617188 25.671875 -10.234375 C 24.640625 -9.847656 23.578125 -9.585938 22.484375 -9.453125 C 20.296875 -9.203125 18.175781 -9.429688 16.125 -10.140625 C 14.125 -10.773438 12.289062 -11.769531 10.625 -13.125 C 9.84375 -13.832031 9.128906 -14.585938 8.484375 -15.390625 C 7.847656 -16.203125 7.304688 -17.023438 6.859375 -17.859375 C 5.890625 -19.597656 5.175781 -21.351562 4.71875 -23.125 C 4.269531 -24.894531 3.984375 -26.679688 3.859375 -28.484375 C 3.796875 -30.273438 3.894531 -32.039062 4.15625 -33.78125 C 4.40625 -35.71875 4.851562 -37.519531 5.5 -39.1875 C 5.820312 -40.03125 6.222656 -40.882812 6.703125 -41.75 C 7.191406 -42.613281 7.753906 -43.46875 8.390625 -44.3125 C 9.742188 -46.050781 11.351562 -47.398438 13.21875 -48.359375 C 15.15625 -49.328125 17.21875 -49.875 19.40625 -50 C 19.53125 -50 19.65625 -50.015625 19.78125 -50.046875 C 19.914062 -50.078125 20.046875 -50.09375 20.171875 -50.09375 L 20.953125 -50 L 22.109375 -50 L 22.59375 -49.90625 C 23.300781 -49.78125 23.925781 -49.617188 24.46875 -49.421875 C 25.019531 -49.234375 25.550781 -49.039062 26.0625 -48.84375 C 27.988281 -47.875 29.660156 -46.554688 31.078125 -44.890625 C 31.398438 -44.503906 31.722656 -44.066406 32.046875 -43.578125 C 32.367188 -43.097656 32.660156 -42.566406 32.921875 -41.984375 C 33.171875 -41.472656 33.390625 -40.878906 33.578125 -40.203125 C 33.773438 -39.523438 33.910156 -38.832031 33.984375 -38.125 L 24.71875 -37.75 C 24.644531 -37.75 24.644531 -37.78125 24.71875 -37.84375 C 24.71875 -37.84375 24.679688 -37.875 24.609375 -37.9375 C 24.546875 -38.0625 24.515625 -38.09375 24.515625 -38.03125 C 24.453125 -38.226562 24.289062 -38.519531 24.03125 -38.90625 C 23.457031 -39.550781 22.785156 -40.066406 22.015625 -40.453125 C 21.753906 -40.578125 21.492188 -40.671875 21.234375 -40.734375 C 21.171875 -40.734375 21.140625 -40.734375 21.140625 -40.734375 L 20.65625 -40.734375 L 20.375 -40.828125 C 20.300781 -40.828125 20.234375 -40.8125 20.171875 -40.78125 C 20.109375 -40.75 20.046875 -40.734375 19.984375 -40.734375 C 19.078125 -40.671875 18.269531 -40.476562 17.5625 -40.15625 C 16.851562 -39.769531 16.210938 -39.222656 15.640625 -38.515625 C 15.054688 -37.742188 14.570312 -36.84375 14.1875 -35.8125 C 13.351562 -33.820312 13 -31.535156 13.125 -28.953125 C 13.257812 -26.441406 13.835938 -24.253906 14.859375 -22.390625 C 15.378906 -21.492188 15.960938 -20.785156 16.609375 -20.265625 C 17.316406 -19.628906 18.085938 -19.179688 18.921875 -18.921875 C 20.722656 -18.335938 22.234375 -18.5 23.453125 -19.40625 C 24.097656 -19.851562 24.582031 -20.398438 24.90625 -21.046875 C 25.226562 -21.691406 25.359375 -22.332031 25.296875 -22.96875 Z M 34.5625 -23.546875 "/></g></g></g><g fill="#d0e0e1" fill-opacity="1"><g transform="translate(249.000134, 193.102018)"><g><path d="M 13.796875 -37.640625 C 13.867188 -33.265625 14 -28.890625 14.1875 -24.515625 C 14.382812 -20.140625 14.609375 -15.765625 14.859375 -11.390625 L 5.59375 -10.90625 C 5.34375 -15.28125 5.117188 -19.6875 4.921875 -24.125 C 4.734375 -28.570312 4.601562 -33.015625 4.53125 -37.453125 Z M 9.171875 -42.46875 C 7.753906 -42.40625 6.53125 -42.875 5.5 -43.875 C 4.46875 -44.875 3.921875 -46.082031 3.859375 -47.5 C 3.796875 -48.90625 4.257812 -50.125 5.25 -51.15625 C 6.25 -52.1875 7.457031 -52.734375 8.875 -52.796875 C 10.289062 -52.867188 11.53125 -52.40625 12.59375 -51.40625 C 13.65625 -50.40625 14.1875 -49.195312 14.1875 -47.78125 C 14.25 -46.363281 13.78125 -45.140625 12.78125 -44.109375 C 11.789062 -43.078125 10.585938 -42.53125 9.171875 -42.46875 Z M 9.171875 -42.46875 "/></g></g></g><g fill="#d0e0e1" fill-opacity="1"><g transform="translate(267.919329, 193.102018)"><g><path d="M 33.109375 -27.3125 C 33.304688 -24.226562 33.421875 -21.15625 33.453125 -18.09375 C 33.484375 -15.039062 33.53125 -12.003906 33.59375 -8.984375 L 24.328125 -8.78125 C 24.265625 -11.875 24.210938 -14.898438 24.171875 -17.859375 C 24.140625 -20.816406 24.03125 -23.773438 23.84375 -26.734375 C 23.78125 -27.441406 23.710938 -28.164062 23.640625 -28.90625 C 23.578125 -29.644531 23.515625 -30.367188 23.453125 -31.078125 C 23.453125 -31.460938 23.4375 -31.832031 23.40625 -32.1875 C 23.375 -32.539062 23.328125 -32.910156 23.265625 -33.296875 L 23.171875 -34.359375 L 23.078125 -34.84375 L 22.96875 -35.328125 C 22.78125 -36.617188 22.523438 -37.710938 22.203125 -38.609375 C 21.816406 -39.378906 21.398438 -39.925781 20.953125 -40.25 C 20.878906 -40.3125 20.796875 -40.375 20.703125 -40.4375 C 20.609375 -40.507812 20.59375 -40.546875 20.65625 -40.546875 C 20.59375 -40.546875 20.460938 -40.546875 20.265625 -40.546875 C 20.078125 -40.484375 19.851562 -40.382812 19.59375 -40.25 C 19.46875 -40.1875 19.335938 -40.125 19.203125 -40.0625 C 19.140625 -40 19.046875 -39.898438 18.921875 -39.765625 C 18.398438 -39.191406 17.945312 -38.421875 17.5625 -37.453125 C 17.375 -36.941406 17.179688 -36.363281 16.984375 -35.71875 L 16.40625 -33.59375 C 15.632812 -30.757812 14.957031 -27.941406 14.375 -25.140625 C 13.800781 -22.347656 13.453125 -19.535156 13.328125 -16.703125 L 13.21875 -16.703125 C 13.21875 -15.859375 13.203125 -15.019531 13.171875 -14.1875 C 13.140625 -13.351562 13.125 -12.519531 13.125 -11.6875 L 3.859375 -11.96875 C 4.054688 -18.34375 4.15625 -24.726562 4.15625 -31.125 C 4.15625 -37.53125 4.15625 -43.984375 4.15625 -50.484375 L 13.421875 -50.484375 C 13.421875 -49.390625 13.421875 -48.296875 13.421875 -47.203125 C 13.546875 -47.328125 13.609375 -47.390625 13.609375 -47.390625 C 14.054688 -47.773438 14.570312 -48.128906 15.15625 -48.453125 C 16.3125 -49.035156 17.503906 -49.421875 18.734375 -49.609375 C 19.367188 -49.742188 20.039062 -49.8125 20.75 -49.8125 C 21.457031 -49.8125 22.164062 -49.710938 22.875 -49.515625 C 23.582031 -49.328125 24.257812 -49.070312 24.90625 -48.75 C 25.226562 -48.625 25.515625 -48.460938 25.765625 -48.265625 C 26.023438 -48.066406 26.285156 -47.875 26.546875 -47.6875 C 27.054688 -47.300781 27.519531 -46.878906 27.9375 -46.421875 C 28.363281 -45.972656 28.769531 -45.523438 29.15625 -45.078125 C 29.726562 -44.179688 30.242188 -43.21875 30.703125 -42.1875 C 31.085938 -41.21875 31.390625 -40.28125 31.609375 -39.375 C 31.835938 -38.476562 32.015625 -37.582031 32.140625 -36.6875 L 32.234375 -36.109375 L 32.34375 -35.421875 L 32.4375 -34.265625 C 32.5 -33.878906 32.546875 -33.492188 32.578125 -33.109375 C 32.609375 -32.722656 32.65625 -32.335938 32.71875 -31.953125 C 32.789062 -31.179688 32.859375 -30.410156 32.921875 -29.640625 C 32.984375 -28.867188 33.046875 -28.09375 33.109375 -27.3125 Z M 33.109375 -27.3125 "/></g></g></g><g fill="#d0e0e1" fill-opacity="1"><g transform="translate(305.468144, 193.102018)"><g><path d="M 33.296875 -29.25 C 33.492188 -28.09375 33.625 -26.929688 33.6875 -25.765625 C 33.75 -24.609375 33.78125 -23.484375 33.78125 -22.390625 C 33.78125 -21.296875 33.75 -20.234375 33.6875 -19.203125 C 33.625 -18.179688 33.5625 -17.15625 33.5 -16.125 C 33.4375 -15.09375 33.351562 -14.09375 33.25 -13.125 C 33.15625 -12.164062 33.109375 -11.234375 33.109375 -10.328125 L 23.84375 -10.71875 C 23.84375 -11.8125 23.890625 -12.851562 23.984375 -13.84375 C 24.078125 -14.84375 24.160156 -15.828125 24.234375 -16.796875 C 24.296875 -17.765625 24.359375 -18.726562 24.421875 -19.6875 C 24.484375 -20.65625 24.515625 -21.585938 24.515625 -22.484375 C 24.515625 -23.390625 24.5 -24.273438 24.46875 -25.140625 C 24.4375 -26.015625 24.320312 -26.804688 24.125 -27.515625 C 24.125 -27.703125 24.09375 -27.890625 24.03125 -28.078125 C 23.96875 -28.273438 23.9375 -28.441406 23.9375 -28.578125 L 23.75 -29.0625 C 23.75 -29.1875 23.734375 -29.28125 23.703125 -29.34375 C 23.671875 -29.40625 23.617188 -29.46875 23.546875 -29.53125 C 23.484375 -29.664062 23.453125 -29.796875 23.453125 -29.921875 C 23.390625 -29.984375 23.359375 -30.03125 23.359375 -30.0625 C 23.359375 -30.101562 23.359375 -30.125 23.359375 -30.125 L 23.265625 -30.3125 C 23.203125 -30.375 23.140625 -30.46875 23.078125 -30.59375 C 23.003906 -30.664062 22.953125 -30.71875 22.921875 -30.75 C 22.890625 -30.78125 22.875 -30.796875 22.875 -30.796875 C 22.8125 -30.921875 22.75 -31 22.6875 -31.03125 C 22.625 -31.0625 22.554688 -31.109375 22.484375 -31.171875 C 22.359375 -31.242188 22.28125 -31.3125 22.25 -31.375 C 22.21875 -31.4375 22.140625 -31.46875 22.015625 -31.46875 C 21.941406 -31.53125 21.859375 -31.578125 21.765625 -31.609375 C 21.671875 -31.640625 21.59375 -31.65625 21.53125 -31.65625 C 21.394531 -31.65625 21.28125 -31.671875 21.1875 -31.703125 C 21.09375 -31.742188 20.976562 -31.765625 20.84375 -31.765625 C 20.71875 -31.765625 20.585938 -31.765625 20.453125 -31.765625 C 20.328125 -31.765625 20.203125 -31.765625 20.078125 -31.765625 C 20.015625 -31.765625 19.929688 -31.765625 19.828125 -31.765625 C 19.734375 -31.765625 19.65625 -31.765625 19.59375 -31.765625 L 19.40625 -31.65625 L 19.203125 -31.65625 C 18.753906 -31.53125 18.175781 -31.304688 17.46875 -30.984375 C 17.144531 -30.859375 16.851562 -30.710938 16.59375 -30.546875 C 16.34375 -30.390625 16.117188 -30.210938 15.921875 -30.015625 C 15.796875 -29.890625 15.671875 -29.796875 15.546875 -29.734375 C 15.472656 -29.671875 15.40625 -29.570312 15.34375 -29.4375 C 15.21875 -29.3125 15.054688 -29.085938 14.859375 -28.765625 C 14.285156 -27.929688 14.0625 -27.09375 14.1875 -26.25 L 14.09375 -26.25 C 14.15625 -23.488281 14.25 -20.722656 14.375 -17.953125 C 14.507812 -15.179688 14.671875 -12.414062 14.859375 -9.65625 L 5.59375 -9.078125 C 4.5625 -27.609375 3.984375 -46.171875 3.859375 -64.765625 L 13.125 -64.765625 C 13.1875 -60.585938 13.25 -56.375 13.3125 -52.125 C 13.382812 -47.875 13.484375 -43.660156 13.609375 -39.484375 C 14.191406 -39.742188 14.769531 -39.96875 15.34375 -40.15625 C 15.925781 -40.351562 16.539062 -40.515625 17.1875 -40.640625 L 17.671875 -40.828125 L 18.25 -40.828125 C 18.375 -40.890625 18.53125 -40.9375 18.71875 -40.96875 C 18.914062 -41.007812 19.113281 -41.03125 19.3125 -41.03125 C 19.625 -41.03125 19.972656 -41.046875 20.359375 -41.078125 C 20.753906 -41.109375 21.144531 -41.09375 21.53125 -41.03125 C 21.851562 -41.03125 22.207031 -40.992188 22.59375 -40.921875 C 22.976562 -40.859375 23.363281 -40.765625 23.75 -40.640625 C 24.132812 -40.578125 24.519531 -40.476562 24.90625 -40.34375 C 25.289062 -40.21875 25.675781 -40.0625 26.0625 -39.875 C 26.445312 -39.675781 26.800781 -39.460938 27.125 -39.234375 C 27.445312 -39.015625 27.800781 -38.773438 28.1875 -38.515625 C 28.445312 -38.253906 28.734375 -37.992188 29.046875 -37.734375 C 29.367188 -37.484375 29.660156 -37.195312 29.921875 -36.875 C 30.054688 -36.675781 30.1875 -36.515625 30.3125 -36.390625 C 30.4375 -36.265625 30.53125 -36.101562 30.59375 -35.90625 C 30.789062 -35.582031 31.019531 -35.257812 31.28125 -34.9375 L 31.5625 -34.46875 C 31.5625 -34.394531 31.578125 -34.3125 31.609375 -34.21875 C 31.640625 -34.125 31.691406 -34.046875 31.765625 -33.984375 L 32.140625 -33.015625 C 32.273438 -32.890625 32.359375 -32.742188 32.390625 -32.578125 C 32.421875 -32.421875 32.46875 -32.242188 32.53125 -32.046875 L 32.828125 -31.078125 C 32.890625 -30.828125 32.96875 -30.539062 33.0625 -30.21875 C 33.15625 -29.894531 33.234375 -29.570312 33.296875 -29.25 Z M 33.296875 -29.25 "/></g></g></g><g fill="#d0e0e1" fill-opacity="1"><g transform="translate(343.210005, 193.102018)"><g><path d="M 37.265625 -33.59375 C 37.585938 -31.40625 37.519531 -29.1875 37.0625 -26.9375 C 36.613281 -24.8125 35.8125 -22.816406 34.65625 -20.953125 C 33.4375 -18.953125 31.925781 -17.3125 30.125 -16.03125 C 28.25 -14.613281 26.15625 -13.675781 23.84375 -13.21875 C 22.6875 -12.96875 21.546875 -12.859375 20.421875 -12.890625 C 19.296875 -12.921875 18.1875 -13.03125 17.09375 -13.21875 C 15.988281 -13.414062 14.921875 -13.722656 13.890625 -14.140625 C 12.867188 -14.554688 11.875 -15.085938 10.90625 -15.734375 C 8.914062 -17.085938 7.304688 -18.789062 6.078125 -20.84375 C 4.921875 -22.78125 4.210938 -24.9375 3.953125 -27.3125 C 3.828125 -28.40625 3.8125 -29.484375 3.90625 -30.546875 C 4 -31.609375 4.144531 -32.65625 4.34375 -33.6875 C 4.539062 -34.65625 4.816406 -35.648438 5.171875 -36.671875 C 5.523438 -37.703125 5.957031 -38.671875 6.46875 -39.578125 C 7.625 -41.640625 9.070312 -43.34375 10.8125 -44.6875 C 11.457031 -45.207031 12.066406 -45.609375 12.640625 -45.890625 C 13.222656 -46.179688 13.804688 -46.425781 14.390625 -46.625 C 15.410156 -46.945312 16.503906 -47.203125 17.671875 -47.390625 C 19.660156 -47.648438 21.71875 -47.648438 23.84375 -47.390625 C 24.425781 -47.328125 24.972656 -47.234375 25.484375 -47.109375 C 26.128906 -46.984375 26.707031 -46.820312 27.21875 -46.625 C 28.375 -46.175781 29.4375 -45.597656 30.40625 -44.890625 C 31.375 -44.242188 32.273438 -43.46875 33.109375 -42.5625 C 33.492188 -42.113281 33.847656 -41.632812 34.171875 -41.125 C 34.367188 -40.863281 34.53125 -40.640625 34.65625 -40.453125 L 35.046875 -39.671875 C 36.140625 -37.804688 36.878906 -35.78125 37.265625 -33.59375 Z M 28 -28.859375 C 28.25 -29.953125 28.28125 -31.015625 28.09375 -32.046875 C 27.894531 -33.203125 27.539062 -34.234375 27.03125 -35.140625 C 26.644531 -35.710938 26.351562 -36.128906 26.15625 -36.390625 C 25.832031 -36.773438 25.507812 -37.097656 25.1875 -37.359375 C 24.800781 -37.546875 24.414062 -37.738281 24.03125 -37.9375 C 23.84375 -38 23.617188 -38.0625 23.359375 -38.125 C 23.359375 -38.125 23.265625 -38.125 23.078125 -38.125 C 23.003906 -38.1875 22.875 -38.21875 22.6875 -38.21875 C 21.394531 -38.351562 20.140625 -38.351562 18.921875 -38.21875 C 18.335938 -38.09375 17.820312 -37.96875 17.375 -37.84375 C 17.050781 -37.707031 16.796875 -37.578125 16.609375 -37.453125 C 14.992188 -36.171875 13.929688 -34.273438 13.421875 -31.765625 C 13.160156 -30.535156 13.09375 -29.40625 13.21875 -28.375 C 13.351562 -27.28125 13.644531 -26.316406 14.09375 -25.484375 C 15.125 -23.804688 16.734375 -22.742188 18.921875 -22.296875 C 21.046875 -21.847656 22.941406 -22.234375 24.609375 -23.453125 C 25.453125 -24.097656 26.160156 -24.875 26.734375 -25.78125 C 27.378906 -26.800781 27.800781 -27.828125 28 -28.859375 Z M 28 -28.859375 "/></g></g></g><g fill="#d0e0e1" fill-opacity="1"><g transform="translate(384.622699, 193.102018)"><g/></g></g></g></g></g></g></g></svg>